<?xml version="1.0" encoding="UTF-8" standalone="no"?>
<svg width="150px" height="70px" viewBox="0 0 150 70" version="1.1" xmlns="http://www.w3.org/2000/svg" xmlns:xlink="http://www.w3.org/1999/xlink">
    <!-- Generator: Sketch 3.8.1 (29687) - http://www.bohemiancoding.com/sketch -->
    <title>Artboard</title>
    <desc>Created with Sketch.</desc>
    <defs></defs>
    <g id="v2" stroke="none" stroke-width="1" fill="none" fill-rule="evenodd">
        <g id="Artboard" fill="#2020FC">
            <g id="Group-5-Copy" transform="translate(12.000000, 8.000000)">
                <path d="M111.694884,0.931034483 L122.611265,0.931034483 C122.611265,9.50097026 115.630853,16.4482759 107.020077,16.4482759 C98.4093021,16.4482759 91.4288896,9.50097026 91.4288896,0.931034483 L102.345271,0.931034483 C102.427512,3.43018306 104.489019,5.43103448 107.020077,5.43103448 C109.551135,5.43103448 111.612643,3.43018306 111.694884,0.931034483 Z M51.7242592,0.931034483 L40.6016172,0.931034483 L40.6016172,34.4398882 L51.7242592,0.931034483 Z M62.7411039,3.4389562 L62.7411039,16.7586207 L62.7428021,16.7586207 C62.7416719,16.8102089 62.7411039,16.861935 62.7411039,16.9137931 C62.7411039,20.7702642 65.8822896,23.8965517 69.7571385,23.8965517 C73.6319873,23.8965517 76.773173,20.7702642 76.773173,16.9137931 C76.773173,16.861935 76.772605,16.8102089 76.7714748,16.7586207 L76.773173,16.7586207 L76.773173,0.931034483 L87.9988282,0.931034483 L87.9981758,17.0689655 C87.9144334,27.0243452 79.7797238,35.0689655 69.7571385,35.0689655 C63.5751643,35.0689655 58.1114279,32.008409 54.8120179,27.3266784 L62.7411039,3.4389562 Z M26.2577243,16.7586207 L26.2560262,16.7586207 C26.2571563,16.8102089 26.2577243,16.861935 26.2577243,16.9137931 C26.2577243,20.7702642 23.1165387,23.8965517 19.2416898,23.8965517 C15.3668409,23.8965517 12.2256553,20.7702642 12.2256553,16.9137931 C12.2256553,16.861935 12.2262233,16.8102089 12.2273534,16.7586207 L12.2256553,16.7586207 L12.2256553,0.931034483 L1,0.931034483 L1,17.0689655 C1.08439482,27.0243452 9.21910448,35.0689655 19.2416898,35.0689655 C29.2642751,35.0689655 37.3989848,27.0243452 37.4827272,17.0689655 L37.4833796,0.931034483 L26.2577243,0.931034483 L26.2577243,16.7586207 L26.2577243,16.7586207 Z M91.4288896,35.0689655 C91.4288896,26.4990297 98.4093021,19.5517241 107.020077,19.5517241 C115.630853,19.5517241 122.611265,26.4990297 122.611265,35.0689655 L91.4288896,35.0689655 Z M102.342721,35.0689655 C102.342721,32.4979848 104.436845,30.4137931 107.020077,30.4137931 C109.60331,30.4137931 111.697434,32.4979848 111.697434,35.0689655 L102.342721,35.0689655 Z" id="Combined-Shape"></path>
                <text id="Shanghai-2016" font-family="ProximaNova-Light, Proxima Nova" font-size="14" font-weight="300" letter-spacing="2.79999995">
                    <tspan x="0.493555307" y="52">Shanghai 2016</tspan>
                </text>
            </g>
        </g>
    </g>
</svg>