<?xml version="1.0" standalone="no"?>
<!DOCTYPE svg PUBLIC "-//W3C//DTD SVG 20010904//EN"
 "http://www.w3.org/TR/2001/REC-SVG-20010904/DTD/svg10.dtd">
<svg version="1.0" xmlns="http://www.w3.org/2000/svg"
 width="220.000000pt" height="220.000000pt" viewBox="0 0 220.000000 220.000000"
 preserveAspectRatio="xMidYMid meet">
<metadata>
Created by potrace 1.11, written by Peter Selinger 2001-2013
</metadata>
<g transform="translate(0.000000,220.000000) scale(0.100000,-0.100000)"
fill="#000000" stroke="none">
<path d="M308 1968 c-2 -7 -3 -110 -2 -228 2 -196 4 -220 24 -275 44 -116 115
-196 215 -246 242 -119 526 3 605 259 17 56 20 93 20 283 l0 219 -133 0 -132
0 0 -202 c1 -212 -5 -248 -45 -288 -77 -77 -200 -66 -258 23 -28 43 -30 65
-32 410 l0 57 -129 0 c-94 0 -130 -3 -133 -12z"/>
<path d="M1459 1968 c-1 -25 0 -753 1 -768 2 -16 260 746 260 767 0 18 -260
19 -261 1z"/>
<path d="M261 814 c1 -194 4 -235 20 -282 88 -255 368 -371 608 -251 109 54
206 181 226 294 4 22 8 134 9 250 l1 210 -132 3 c-133 3 -133 3 -133 -20 0
-13 -1 -109 -3 -214 -2 -190 -2 -191 -30 -233 -66 -100 -218 -94 -277 12 -22
38 -23 51 -24 246 l-1 206 -133 3 -133 3 2 -227z"/>
<path d="M1213 989 c22 -181 198 -327 379 -313 76 5 96 10 154 39 101 50 182
165 197 283 l5 42 -137 0 -137 0 -9 -32 c-23 -73 -121 -96 -176 -41 -17 16
-31 39 -32 51 -1 21 -5 22 -126 22 l-124 0 6 -51z"/>
<path d="M1479 577 c-138 -39 -249 -166 -266 -305 l-6 -50 122 1 122 0 15 33
c33 69 130 81 179 22 14 -16 25 -35 25 -43 0 -10 29 -13 135 -12 75 0 138 3
140 6 8 13 -17 109 -41 158 -74 152 -260 235 -425 190z"/>
</g>
</svg>
